<svg width="526" height="380" viewBox="0 0 526 380" fill="none" xmlns="http://www.w3.org/2000/svg">
<g clip-path="url(#clip0_178_15)">
<path d="M525.24 377.086H0.760116C0.55852 377.086 0.365181 377.006 0.222632 376.863C0.0800828 376.721 0 376.527 0 376.326C0 376.124 0.0800828 375.931 0.222632 375.788C0.365181 375.646 0.55852 375.565 0.760116 375.565H525.24C525.441 375.565 525.635 375.646 525.777 375.788C525.92 375.931 526 376.124 526 376.326C526 376.527 525.92 376.721 525.777 376.863C525.635 377.006 525.441 377.086 525.24 377.086Z" fill="#CCCCCC"/>
<path d="M473.327 244.508H164.72C163.41 244.508 162.153 245.028 161.227 245.955C160.3 246.882 159.78 248.138 159.78 249.449C159.78 250.759 160.3 252.016 161.227 252.943C162.153 253.87 163.41 254.39 164.72 254.39H173.462V372.599C173.462 373.91 173.982 375.167 174.909 376.093C175.835 377.02 177.092 377.54 178.402 377.54C179.713 377.54 180.969 377.02 181.896 376.093C182.823 375.167 183.343 373.91 183.343 372.599L183.418 254.39H453.944V372.599C453.944 373.91 454.465 375.167 455.391 376.093C456.318 377.02 457.575 377.54 458.885 377.54C460.195 377.54 461.452 377.02 462.379 376.093C463.305 375.167 463.826 373.91 463.826 372.599V256.996L465.263 254.39H473.327C474.638 254.39 475.894 253.87 476.821 252.943C477.747 252.016 478.268 250.759 478.268 249.449C478.268 248.138 477.747 246.882 476.821 245.955C475.894 245.028 474.638 244.508 473.327 244.508Z" fill="#CCCCCC"/>
<path d="M335.814 247.094H242.334C240.524 247.092 238.789 246.372 237.509 245.092C236.229 243.812 235.509 242.076 235.507 240.266V188.794C235.509 186.984 236.229 185.248 237.509 183.968C238.789 182.688 240.524 181.968 242.334 181.966H335.814C337.625 181.968 339.36 182.688 340.64 183.968C341.92 185.248 342.64 186.984 342.642 188.794V240.266C342.64 242.076 341.92 243.812 340.64 245.092C339.36 246.372 337.625 247.092 335.814 247.094Z" fill="#3F3D56"/>
<path d="M335.814 187.221H242.335C241.918 187.222 241.518 187.388 241.223 187.683C240.928 187.978 240.762 188.378 240.761 188.795V240.267C240.762 240.684 240.928 241.084 241.223 241.379C241.518 241.674 241.918 241.84 242.335 241.841H335.814C336.231 241.84 336.631 241.674 336.926 241.379C337.221 241.084 337.387 240.684 337.387 240.267V188.795C337.387 188.378 337.221 187.978 336.926 187.683C336.631 187.388 336.231 187.222 335.814 187.221Z" fill="white"/>
<path d="M297.047 223.663C297.047 223.663 285.856 221.084 279.701 225.812C273.547 230.54 287.535 241.286 287.535 241.286L297.047 223.663Z" fill="#2F2E41"/>
<path d="M289.622 218.791C295.452 218.791 300.178 214.064 300.178 208.234C300.178 202.403 295.452 197.677 289.622 197.677C283.793 197.677 279.067 202.403 279.067 208.234C279.067 214.064 283.793 218.791 289.622 218.791Z" fill="#A0616A"/>
<path d="M281.46 193.415C282.164 192.22 283.184 191.243 284.408 190.591C285.633 189.94 287.013 189.639 288.397 189.723C289.845 189.905 291.258 190.3 292.589 190.897L299.49 193.589C301.276 194.286 303.231 195.139 304.006 196.892C304.725 198.519 304.189 200.398 303.646 202.093L301.064 210.146C300.778 208.323 300.287 206.538 299.601 204.826C298.903 203.102 297.643 201.665 296.025 200.748C294.232 199.829 292.12 199.848 290.108 199.945C287.258 200.082 284.159 200.444 282.134 202.455C281.06 203.596 280.331 205.02 280.033 206.559C279.74 208.09 279.592 209.646 279.592 211.205C278.424 209.196 277.439 207.086 276.651 204.899C276.003 203.271 275.634 201.545 275.559 199.795C275.491 198.029 276.077 196.3 277.204 194.939C277.776 194.274 278.523 193.782 279.359 193.519C280.196 193.256 281.09 193.231 281.94 193.449L281.46 193.415Z" fill="#2F2E41"/>
<path d="M314.827 232.817C314.728 232.461 314.526 232.141 314.246 231.899C313.966 231.657 313.621 231.503 313.254 231.457C313.229 231.44 313.204 231.424 313.177 231.411L297.419 222.579C296.969 222.327 296.439 222.258 295.94 222.386C295.44 222.515 295.01 222.831 294.737 223.269L290.427 230.248L283.936 223.756L283.833 223.653C283.5 223.32 283.06 223.114 282.59 223.073C282.121 223.032 281.652 223.158 281.266 223.428L268.315 232.498C268.293 232.498 268.27 232.506 268.247 232.506C267.627 232.609 267.061 232.921 266.642 233.389C266.224 233.858 265.977 234.455 265.944 235.083L265.609 241.841H317.328L314.827 232.817Z" fill="#CA3636"/>
<path d="M343.692 240.791H333.714C333.714 240.512 333.603 240.245 333.406 240.048C333.209 239.851 332.942 239.741 332.664 239.741H329.513C329.234 239.741 328.967 239.851 328.77 240.048C328.573 240.245 328.462 240.512 328.462 240.791H325.311C325.311 240.512 325.201 240.245 325.004 240.048C324.807 239.851 324.539 239.741 324.261 239.741H321.11C320.831 239.741 320.564 239.851 320.367 240.048C320.17 240.245 320.06 240.512 320.06 240.791H316.909C316.909 240.512 316.798 240.245 316.601 240.048C316.404 239.851 316.137 239.741 315.858 239.741H312.707C312.429 239.741 312.161 239.851 311.964 240.048C311.767 240.245 311.657 240.512 311.657 240.791H308.506C308.506 240.512 308.395 240.245 308.198 240.048C308.001 239.851 307.734 239.741 307.455 239.741H304.304C304.026 239.741 303.759 239.851 303.562 240.048C303.365 240.245 303.254 240.512 303.254 240.791H300.103C300.103 240.512 299.992 240.245 299.795 240.048C299.598 239.851 299.331 239.741 299.053 239.741H295.902C295.623 239.741 295.356 239.851 295.159 240.048C294.962 240.245 294.851 240.512 294.851 240.791H291.7C291.7 240.512 291.59 240.245 291.393 240.048C291.196 239.851 290.929 239.741 290.65 239.741H287.499C287.22 239.741 286.953 239.851 286.756 240.048C286.559 240.245 286.449 240.512 286.449 240.791H283.298C283.298 240.512 283.187 240.245 282.99 240.048C282.793 239.851 282.526 239.741 282.247 239.741H279.096C278.818 239.741 278.55 239.851 278.354 240.048C278.157 240.245 278.046 240.512 278.046 240.791H274.895C274.895 240.512 274.784 240.245 274.587 240.048C274.39 239.851 274.123 239.741 273.845 239.741H270.693C270.415 239.741 270.148 239.851 269.951 240.048C269.754 240.245 269.643 240.512 269.643 240.791H266.492C266.492 240.512 266.381 240.245 266.184 240.048C265.987 239.851 265.72 239.741 265.442 239.741H262.291C262.012 239.741 261.745 239.851 261.548 240.048C261.351 240.245 261.24 240.512 261.24 240.791H258.089C258.089 240.512 257.979 240.245 257.782 240.048C257.585 239.851 257.318 239.741 257.039 239.741H253.888C253.609 239.741 253.342 239.851 253.145 240.048C252.948 240.245 252.838 240.512 252.838 240.791H249.687C249.687 240.512 249.576 240.245 249.379 240.048C249.182 239.851 248.915 239.741 248.636 239.741H245.485C245.207 239.741 244.94 239.851 244.743 240.048C244.546 240.245 244.435 240.512 244.435 240.791H234.457C233.622 240.792 232.822 241.125 232.232 241.716C231.642 242.307 231.311 243.107 231.311 243.942C231.311 244.777 231.642 245.578 232.232 246.169C232.822 246.76 233.622 247.092 234.457 247.094H343.692C344.528 247.094 345.329 246.762 345.92 246.171C346.511 245.58 346.843 244.778 346.843 243.942C346.843 243.107 346.511 242.305 345.92 241.714C345.329 241.123 344.528 240.791 343.692 240.791Z" fill="#3F3D56"/>
<path d="M218.213 222.49V243.415H165.794C164.389 243.464 162.99 243.23 161.678 242.726C160.366 242.222 159.169 241.459 158.158 240.483C157.147 239.506 156.343 238.337 155.794 237.043C155.245 235.749 154.962 234.358 154.962 232.953C154.962 231.547 155.245 230.156 155.794 228.863C156.343 227.569 157.147 226.399 158.158 225.423C159.169 224.446 160.366 223.683 161.678 223.18C162.99 222.676 164.389 222.441 165.794 222.49H218.213Z" fill="#F2F2F2"/>
<path d="M219.501 243.254C219.501 243.467 219.416 243.672 219.265 243.823C219.114 243.974 218.91 244.059 218.696 244.059H164.86C161.936 244.059 159.132 242.897 157.065 240.83C154.997 238.762 153.836 235.957 153.836 233.033C153.836 230.109 154.997 227.305 157.065 225.237C159.132 223.169 161.936 222.007 164.86 222.007H218.696C218.91 222.007 219.114 222.092 219.265 222.243C219.416 222.394 219.501 222.599 219.501 222.812C219.501 223.026 219.416 223.23 219.265 223.381C219.114 223.532 218.91 223.617 218.696 223.617H164.86C162.365 223.619 159.972 224.612 158.208 226.378C156.444 228.144 155.454 230.537 155.454 233.033C155.454 235.529 156.444 237.923 158.208 239.688C159.972 241.454 162.365 242.447 164.86 242.449H218.696C218.91 242.449 219.114 242.534 219.265 242.685C219.416 242.836 219.501 243.041 219.501 243.254Z" fill="#CA3636"/>
<path d="M218.213 227.319H161.883C161.862 227.319 161.84 227.315 161.821 227.307C161.801 227.299 161.783 227.287 161.768 227.272C161.753 227.257 161.741 227.24 161.733 227.22C161.725 227.2 161.721 227.179 161.721 227.158C161.721 227.137 161.725 227.116 161.733 227.096C161.741 227.077 161.753 227.059 161.768 227.044C161.783 227.029 161.801 227.017 161.821 227.009C161.84 227.001 161.862 226.997 161.883 226.997H218.213C218.256 226.997 218.296 227.015 218.326 227.045C218.356 227.075 218.373 227.116 218.373 227.158C218.373 227.201 218.356 227.241 218.326 227.272C218.296 227.302 218.256 227.319 218.213 227.319Z" fill="#CCCCCC"/>
<path d="M218.213 231.182H161.883C161.862 231.182 161.84 231.178 161.821 231.17C161.801 231.162 161.783 231.15 161.768 231.135C161.753 231.12 161.741 231.103 161.733 231.083C161.725 231.063 161.721 231.042 161.721 231.021C161.721 231 161.725 230.979 161.733 230.959C161.741 230.94 161.753 230.922 161.768 230.907C161.783 230.892 161.801 230.88 161.821 230.872C161.84 230.864 161.862 230.86 161.883 230.86H218.213C218.256 230.861 218.296 230.878 218.326 230.908C218.356 230.938 218.373 230.979 218.373 231.021C218.373 231.064 218.356 231.104 218.326 231.135C218.296 231.165 218.256 231.182 218.213 231.182Z" fill="#CCCCCC"/>
<path d="M218.213 235.045H161.883C161.862 235.045 161.84 235.041 161.821 235.033C161.801 235.025 161.783 235.013 161.768 234.998C161.753 234.983 161.741 234.966 161.733 234.946C161.725 234.926 161.721 234.905 161.721 234.884C161.721 234.863 161.725 234.842 161.733 234.822C161.741 234.803 161.753 234.785 161.768 234.77C161.783 234.755 161.801 234.743 161.821 234.735C161.84 234.727 161.862 234.723 161.883 234.723H218.213C218.256 234.724 218.296 234.741 218.326 234.771C218.356 234.801 218.373 234.842 218.373 234.884C218.373 234.927 218.356 234.967 218.326 234.998C218.296 235.028 218.256 235.045 218.213 235.045Z" fill="#CCCCCC"/>
<path d="M218.213 238.908H161.883C161.862 238.908 161.84 238.904 161.821 238.896C161.801 238.888 161.783 238.876 161.768 238.861C161.753 238.847 161.741 238.829 161.733 238.809C161.725 238.79 161.721 238.768 161.721 238.747C161.721 238.726 161.725 238.705 161.733 238.685C161.741 238.666 161.753 238.648 161.768 238.633C161.783 238.618 161.801 238.606 161.821 238.598C161.84 238.59 161.862 238.586 161.883 238.586H218.213C218.256 238.587 218.296 238.604 218.326 238.634C218.356 238.664 218.373 238.705 218.373 238.747C218.373 238.79 218.356 238.831 218.326 238.861C218.296 238.891 218.256 238.908 218.213 238.908Z" fill="#CCCCCC"/>
<path d="M208.332 200.445V221.37H155.913C154.508 221.419 153.108 221.184 151.796 220.68C150.484 220.177 149.287 219.414 148.277 218.437C147.266 217.461 146.462 216.291 145.913 214.997C145.364 213.704 145.081 212.313 145.081 210.907C145.081 209.502 145.364 208.111 145.913 206.817C146.462 205.523 147.266 204.354 148.277 203.377C149.287 202.401 150.484 201.638 151.796 201.134C153.108 200.63 154.508 200.396 155.913 200.445H208.332Z" fill="#F2F2F2"/>
<path d="M209.619 221.209C209.619 221.422 209.534 221.627 209.384 221.778C209.233 221.929 209.028 222.013 208.815 222.013H154.979C153.531 222.013 152.097 221.728 150.76 221.174C149.422 220.62 148.207 219.808 147.183 218.784C146.159 217.76 145.347 216.545 144.793 215.207C144.239 213.869 143.954 212.436 143.954 210.988C143.954 209.54 144.239 208.106 144.793 206.768C145.347 205.431 146.159 204.215 147.183 203.191C148.207 202.168 149.422 201.355 150.76 200.801C152.097 200.247 153.531 199.962 154.979 199.962H208.815C209.028 199.962 209.233 200.047 209.384 200.198C209.534 200.349 209.619 200.553 209.619 200.767C209.619 200.98 209.534 201.185 209.384 201.336C209.233 201.487 209.028 201.572 208.815 201.572H154.979C152.483 201.574 150.091 202.567 148.327 204.333C146.563 206.098 145.572 208.492 145.572 210.988C145.572 213.484 146.563 215.877 148.327 217.643C150.091 219.409 152.483 220.402 154.979 220.404H208.815C209.028 220.404 209.233 220.489 209.383 220.64C209.534 220.791 209.619 220.995 209.619 221.209Z" fill="#3A3AB0"/>
<path d="M208.332 205.274H152.001C151.98 205.274 151.959 205.27 151.939 205.262C151.92 205.254 151.902 205.242 151.887 205.227C151.872 205.212 151.86 205.194 151.852 205.175C151.844 205.155 151.839 205.134 151.839 205.113C151.839 205.092 151.844 205.07 151.852 205.051C151.86 205.031 151.872 205.014 151.887 204.999C151.902 204.984 151.92 204.972 151.939 204.964C151.959 204.956 151.98 204.952 152.001 204.952H208.332C208.374 204.952 208.415 204.969 208.445 204.999C208.475 205.029 208.492 205.07 208.492 205.113C208.492 205.155 208.475 205.196 208.445 205.226C208.415 205.256 208.374 205.273 208.332 205.274Z" fill="#CCCCCC"/>
<path d="M208.332 209.137H152.001C151.98 209.137 151.959 209.133 151.939 209.125C151.92 209.117 151.902 209.105 151.887 209.09C151.872 209.075 151.86 209.057 151.852 209.038C151.844 209.018 151.839 208.997 151.839 208.976C151.839 208.955 151.844 208.934 151.852 208.914C151.86 208.894 151.872 208.877 151.887 208.862C151.902 208.847 151.92 208.835 151.939 208.827C151.959 208.819 151.98 208.815 152.001 208.815H208.332C208.374 208.815 208.415 208.832 208.445 208.862C208.475 208.892 208.492 208.933 208.492 208.976C208.492 209.018 208.475 209.059 208.445 209.089C208.415 209.119 208.374 209.136 208.332 209.137Z" fill="#CCCCCC"/>
<path d="M208.332 213H152.001C151.98 213 151.959 212.996 151.939 212.988C151.92 212.98 151.902 212.968 151.887 212.953C151.872 212.938 151.86 212.92 151.852 212.901C151.844 212.881 151.839 212.86 151.839 212.839C151.839 212.818 151.844 212.797 151.852 212.777C151.86 212.757 151.872 212.74 151.887 212.725C151.902 212.71 151.92 212.698 151.939 212.69C151.959 212.682 151.98 212.678 152.001 212.678H208.332C208.374 212.678 208.415 212.695 208.445 212.725C208.475 212.756 208.492 212.796 208.492 212.839C208.492 212.881 208.475 212.922 208.445 212.952C208.415 212.982 208.374 212.999 208.332 213Z" fill="#CCCCCC"/>
<path d="M208.332 216.863H152.001C151.98 216.863 151.959 216.859 151.939 216.851C151.92 216.843 151.902 216.831 151.887 216.816C151.872 216.801 151.86 216.783 151.852 216.764C151.844 216.744 151.839 216.723 151.839 216.702C151.839 216.68 151.844 216.659 151.852 216.64C151.86 216.62 151.872 216.602 151.887 216.588C151.902 216.573 151.92 216.561 151.939 216.553C151.959 216.545 151.98 216.541 152.001 216.541H208.332C208.374 216.541 208.415 216.558 208.445 216.588C208.475 216.618 208.492 216.659 208.492 216.702C208.492 216.744 208.475 216.785 208.445 216.815C208.415 216.845 208.374 216.862 208.332 216.863Z" fill="#CCCCCC"/>
<path d="M269.311 317.791V299.547C269.311 298.74 268.991 297.967 268.421 297.396C267.85 296.826 267.077 296.506 266.271 296.506H197.1C196.294 296.506 195.521 296.826 194.95 297.396C194.38 297.967 194.06 298.74 194.06 299.547V317.791H269.311Z" fill="#CCCCCC"/>
<path d="M269.311 324.633H194.06V348.199H269.311V324.633Z" fill="#CCCCCC"/>
<path d="M194.06 355.04V373.285C194.06 374.091 194.38 374.865 194.95 375.435C195.521 376.005 196.294 376.326 197.1 376.326H266.271C267.077 376.326 267.85 376.005 268.421 375.435C268.991 374.865 269.311 374.091 269.311 373.285V355.04H194.06Z" fill="#CCCCCC"/>
<path d="M231.305 310.189C232.565 310.189 233.586 309.168 233.586 307.909C233.586 306.649 232.565 305.628 231.305 305.628C230.046 305.628 229.025 306.649 229.025 307.909C229.025 309.168 230.046 310.189 231.305 310.189Z" fill="white"/>
<path d="M231.305 340.597C232.565 340.597 233.586 339.576 233.586 338.316C233.586 337.057 232.565 336.036 231.305 336.036C230.046 336.036 229.025 337.057 229.025 338.316C229.025 339.576 230.046 340.597 231.305 340.597Z" fill="white"/>
<path d="M231.428 370.36C232.687 370.36 233.708 369.339 233.708 368.08C233.708 366.82 232.687 365.799 231.428 365.799C230.168 365.799 229.147 366.82 229.147 368.08C229.147 369.339 230.168 370.36 231.428 370.36Z" fill="white"/>
<path d="M260.78 275.703V296.628H208.361C206.956 296.677 205.556 296.443 204.244 295.939C202.932 295.435 201.735 294.672 200.725 293.696C199.714 292.72 198.91 291.55 198.361 290.256C197.812 288.962 197.529 287.571 197.529 286.166C197.529 284.76 197.812 283.369 198.361 282.076C198.91 280.782 199.714 279.612 200.725 278.636C201.735 277.659 202.932 276.897 204.244 276.393C205.556 275.889 206.956 275.655 208.361 275.703H260.78Z" fill="#F2F2F2"/>
<path d="M262.067 296.467C262.067 296.681 261.983 296.885 261.832 297.036C261.681 297.187 261.476 297.272 261.263 297.272H207.427C205.978 297.273 204.544 296.989 203.205 296.435C201.866 295.882 200.65 295.07 199.625 294.046C198.601 293.022 197.788 291.806 197.233 290.468C196.679 289.129 196.393 287.695 196.393 286.246C196.393 284.798 196.679 283.363 197.233 282.025C197.788 280.687 198.601 279.471 199.625 278.447C200.65 277.423 201.866 276.611 203.205 276.057C204.544 275.504 205.978 275.219 207.427 275.221H261.263C261.476 275.221 261.681 275.305 261.832 275.456C261.983 275.607 262.067 275.812 262.067 276.025C262.067 276.239 261.983 276.444 261.832 276.594C261.681 276.745 261.476 276.83 261.263 276.83H207.427C204.931 276.832 202.539 277.825 200.775 279.591C199.011 281.357 198.02 283.75 198.02 286.246C198.02 288.742 199.011 291.136 200.775 292.901C202.539 294.667 204.931 295.66 207.427 295.662H261.263C261.476 295.662 261.681 295.747 261.832 295.898C261.982 296.049 262.067 296.254 262.067 296.467Z" fill="#3F3D56"/>
<path d="M260.78 280.532H204.449C204.428 280.532 204.407 280.528 204.387 280.52C204.368 280.512 204.35 280.5 204.335 280.486C204.32 280.471 204.308 280.453 204.3 280.433C204.292 280.414 204.287 280.393 204.287 280.371C204.287 280.35 204.292 280.329 204.3 280.309C204.308 280.29 204.32 280.272 204.335 280.257C204.35 280.242 204.368 280.23 204.387 280.222C204.407 280.214 204.428 280.21 204.449 280.21H260.78C260.822 280.211 260.863 280.228 260.893 280.258C260.923 280.288 260.94 280.329 260.94 280.371C260.94 280.414 260.923 280.455 260.893 280.485C260.863 280.515 260.822 280.532 260.78 280.532Z" fill="#CCCCCC"/>
<path d="M260.78 284.395H204.449C204.428 284.395 204.407 284.391 204.387 284.383C204.368 284.375 204.35 284.363 204.335 284.349C204.32 284.334 204.308 284.316 204.3 284.296C204.292 284.277 204.287 284.256 204.287 284.234C204.287 284.213 204.292 284.192 204.3 284.172C204.308 284.153 204.32 284.135 204.335 284.12C204.35 284.105 204.368 284.093 204.387 284.085C204.407 284.077 204.428 284.073 204.449 284.073H260.78C260.822 284.074 260.863 284.091 260.893 284.121C260.923 284.151 260.94 284.192 260.94 284.234C260.94 284.277 260.923 284.318 260.893 284.348C260.863 284.378 260.822 284.395 260.78 284.395Z" fill="#CCCCCC"/>
<path d="M260.78 288.258H204.449C204.428 288.258 204.407 288.254 204.387 288.246C204.368 288.238 204.35 288.227 204.335 288.212C204.32 288.197 204.308 288.179 204.3 288.159C204.292 288.14 204.287 288.119 204.287 288.097C204.287 288.076 204.292 288.055 204.3 288.036C204.308 288.016 204.32 287.998 204.335 287.983C204.35 287.968 204.368 287.956 204.387 287.948C204.407 287.94 204.428 287.936 204.449 287.936H260.78C260.822 287.937 260.863 287.954 260.893 287.984C260.923 288.014 260.94 288.055 260.94 288.097C260.94 288.14 260.923 288.181 260.893 288.211C260.863 288.241 260.822 288.258 260.78 288.258Z" fill="#CCCCCC"/>
<path d="M260.78 292.121H204.449C204.428 292.121 204.407 292.117 204.387 292.109C204.368 292.101 204.35 292.089 204.335 292.075C204.32 292.06 204.308 292.042 204.3 292.022C204.292 292.003 204.287 291.982 204.287 291.96C204.287 291.939 204.292 291.918 204.3 291.898C204.308 291.879 204.32 291.861 204.335 291.846C204.35 291.831 204.368 291.819 204.387 291.811C204.407 291.803 204.428 291.799 204.449 291.799H260.78C260.822 291.8 260.863 291.817 260.893 291.847C260.923 291.877 260.94 291.918 260.94 291.96C260.94 292.003 260.923 292.044 260.893 292.074C260.863 292.104 260.822 292.121 260.78 292.121Z" fill="#CCCCCC"/>
<path d="M190.113 139.131V5.7177C190.115 4.20181 190.717 2.74849 191.789 1.67659C192.861 0.604683 194.314 0.00172429 195.83 0H301.28C302.795 0.00173433 304.249 0.604697 305.32 1.6766C306.392 2.7485 306.995 4.20181 306.997 5.7177V139.131C306.995 140.646 306.392 142.1 305.32 143.172C304.249 144.244 302.795 144.847 301.28 144.848H195.83C194.314 144.847 192.861 144.244 191.789 143.172C190.717 142.1 190.115 140.646 190.113 139.131ZM195.83 1.2706C194.651 1.27192 193.521 1.74088 192.687 2.57459C191.854 3.40829 191.385 4.53866 191.383 5.7177V139.131C191.385 140.31 191.854 141.44 192.687 142.274C193.521 143.107 194.651 143.576 195.83 143.578H301.28C302.459 143.576 303.589 143.107 304.423 142.274C305.256 141.44 305.725 140.31 305.726 139.131V5.7177C305.725 4.53867 305.256 3.40829 304.423 2.57459C303.589 1.74088 302.459 1.27192 301.28 1.2706H195.83Z" fill="#E6E6E6"/>
<path d="M254.468 61.2693V33.8755C254.469 33.1175 254.77 32.3908 255.306 31.8549C255.842 31.3189 256.569 31.0174 257.327 31.0166H280.538C281.296 31.0174 282.023 31.3189 282.559 31.8549C283.095 32.3908 283.396 33.1175 283.397 33.8755V61.2693C283.396 62.0273 283.095 62.754 282.559 63.2899C282.023 63.8259 281.296 64.1273 280.538 64.1282H257.327C256.569 64.1273 255.842 63.8259 255.306 63.2899C254.77 62.754 254.469 62.0273 254.468 61.2693Z" fill="#CA3636"/>
<path d="M209.366 73.9753V46.5815C209.367 45.8235 209.668 45.0969 210.204 44.5609C210.74 44.025 211.467 43.7235 212.225 43.7227H235.436C236.194 43.7235 236.921 44.025 237.457 44.5609C237.993 45.0969 238.294 45.8235 238.295 46.5815V73.9754C238.294 74.7333 237.993 75.46 237.457 75.996C236.921 76.5319 236.194 76.8334 235.436 76.8342H212.225C211.467 76.8334 210.74 76.5319 210.204 75.9959C209.668 75.46 209.367 74.7333 209.366 73.9753Z" fill="#CCCCCC"/>
<path d="M245.575 112.729V85.3348C245.576 84.5768 245.877 83.8502 246.413 83.3142C246.949 82.7782 247.675 82.4768 248.433 82.476H271.645C272.403 82.4768 273.129 82.7782 273.665 83.3142C274.201 83.8502 274.503 84.5768 274.503 85.3348V112.729C274.503 113.487 274.201 114.213 273.665 114.749C273.129 115.285 272.403 115.587 271.645 115.588H248.433C247.675 115.587 246.949 115.285 246.413 114.749C245.877 114.213 245.576 113.487 245.575 112.729Z" fill="#FF6584"/>
<path d="M384.286 237.971H360.403C360.177 237.971 359.953 238.023 359.75 238.124L353.722 241.141C353.524 241.226 353.354 241.367 353.236 241.546C353.117 241.726 353.053 241.937 353.053 242.152C353.053 242.368 353.117 242.579 353.236 242.759C353.354 242.938 353.524 243.079 353.722 243.164L359.75 246.181C359.953 246.282 360.177 246.334 360.403 246.334H384.286C384.615 246.353 384.939 246.241 385.186 246.023C385.434 245.806 385.586 245.499 385.609 245.17V239.135C385.586 238.806 385.434 238.499 385.186 238.281C384.939 238.064 384.615 237.952 384.286 237.971Z" fill="#3F3D56"/>
<path d="M385.609 239.134V245.17C385.586 245.499 385.434 245.806 385.186 246.023C384.939 246.241 384.615 246.352 384.286 246.333H379.528V237.971H384.286C384.615 237.952 384.939 238.064 385.186 238.281C385.434 238.499 385.586 238.806 385.609 239.134Z" fill="#CA3636"/>
<path d="M384.107 192.816C385.188 192.349 386.357 192.116 387.535 192.132C388.713 192.148 389.874 192.413 390.943 192.91C392.011 193.406 392.963 194.122 393.736 195.012C394.508 195.902 395.084 196.945 395.425 198.073C395.531 198.43 395.613 198.795 395.669 199.163L429.066 215.727L436.796 210.604L446.412 221.676L434.611 231.262C433.192 232.406 431.442 233.062 429.62 233.132C427.799 233.202 426.003 232.683 424.5 231.652L390.615 208.217C390.363 208.324 390.105 208.418 389.844 208.498C388.716 208.839 387.529 208.938 386.36 208.789C385.191 208.639 384.067 208.244 383.062 207.63C382.056 207.015 381.192 206.195 380.525 205.223C379.859 204.252 379.405 203.15 379.194 201.99C379.131 201.654 379.09 201.314 379.07 200.972C378.976 199.261 379.409 197.562 380.309 196.104C381.209 194.646 382.535 193.498 384.107 192.816Z" fill="#FFB8B8"/>
<path d="M453.668 294.794H417.175C417.175 295.843 379.565 296.695 379.565 296.695C378.974 297.139 378.436 297.649 377.961 298.215C376.532 299.919 375.752 302.073 375.756 304.297V305.817C375.757 308.337 376.759 310.753 378.54 312.535C380.322 314.317 382.738 315.318 385.258 315.319H453.668C456.187 315.317 458.603 314.315 460.384 312.534C462.166 310.752 463.167 308.337 463.17 305.817V304.297C463.166 301.778 462.164 299.363 460.383 297.581C458.602 295.8 456.187 294.798 453.668 294.794Z" fill="#3F3D56"/>
<path d="M413.972 378.798H423.854V314.942H413.972V378.798Z" fill="#3F3D56"/>
<path d="M385.848 378.45C385.848 379.518 400.822 378.863 419.293 378.863C437.764 378.863 452.738 379.518 452.738 378.45C452.738 377.383 437.764 368.915 419.293 368.915C400.822 368.915 385.848 377.383 385.848 378.45Z" fill="#3F3D56"/>
<path d="M394.768 370.966L385.45 370.965L381.016 346.794L394.77 346.794L394.768 370.966Z" fill="#FFB8B8"/>
<path d="M397.145 380L367.097 379.999V379.619C367.097 378.083 367.4 376.562 367.987 375.143C368.575 373.724 369.437 372.434 370.523 371.348C371.609 370.262 372.898 369.4 374.317 368.813C375.736 368.225 377.257 367.922 378.793 367.922H378.793L397.146 367.923L397.145 380Z" fill="#2F2E41"/>
<path d="M380.831 355.977L362.253 314.313C360.702 310.801 360.53 306.834 361.772 303.202C363.014 299.569 365.579 296.538 368.956 294.712L409.252 273.101L427.64 271.537L444.602 269.995L444.724 270.202C444.881 270.467 448.528 276.767 446.062 283.674C444.193 288.914 439.329 293.007 431.606 295.839C413.58 302.449 392.757 308.098 384.641 310.22C384.282 310.312 383.947 310.478 383.658 310.709C383.368 310.939 383.13 311.229 382.96 311.558C382.79 311.883 382.689 312.24 382.663 312.606C382.638 312.972 382.688 313.34 382.811 313.685L400.071 352.466C400.251 352.958 400.316 353.485 400.26 354.005C400.205 354.526 400.031 355.028 399.751 355.47C399.471 355.913 399.093 356.286 398.647 356.56C398.2 356.834 397.697 357.001 397.175 357.049L384.279 357.989C384.169 357.999 384.06 358.004 383.952 358.004C383.291 358.004 382.645 357.812 382.091 357.453C381.537 357.093 381.099 356.58 380.831 355.977Z" fill="#2F2E41"/>
<path d="M399.329 370.966L390.011 370.965L385.577 346.794L399.33 346.794L399.329 370.966Z" fill="#FFB8B8"/>
<path d="M401.706 380L371.658 379.999V379.619C371.658 378.083 371.96 376.562 372.548 375.143C373.136 373.724 373.997 372.434 375.083 371.348C376.17 370.262 377.459 369.4 378.878 368.813C380.297 368.225 381.818 367.922 383.353 367.922H383.354L401.706 367.923L401.706 380Z" fill="#2F2E41"/>
<path d="M386.151 358.257L367.573 316.593C366.022 313.082 365.851 309.114 367.093 305.482C368.335 301.85 370.9 298.819 374.277 296.992L414.573 275.382L432.961 273.818L449.923 272.276L450.045 272.483C450.201 272.747 453.848 279.047 451.383 285.955C449.513 291.194 444.649 295.287 436.927 298.119C418.901 304.729 398.078 310.379 389.962 312.501C389.603 312.592 389.268 312.759 388.978 312.989C388.689 313.22 388.451 313.509 388.281 313.838C388.111 314.163 388.01 314.52 387.984 314.886C387.958 315.253 388.009 315.62 388.132 315.966L405.392 354.747C405.572 355.238 405.637 355.765 405.581 356.286C405.526 356.807 405.352 357.308 405.072 357.751C404.792 358.194 404.414 358.567 403.968 358.84C403.521 359.114 403.018 359.282 402.496 359.33L389.6 360.269C389.49 360.28 389.381 360.285 389.273 360.285C388.612 360.284 387.966 360.093 387.412 359.733C386.858 359.373 386.42 358.861 386.151 358.257Z" fill="#2F2E41"/>
<path d="M376.892 230.979C369.085 220.593 362.913 209.075 358.591 196.822C358.341 196.089 358.359 195.291 358.642 194.57C358.924 193.849 359.454 193.252 360.136 192.885L386.85 178.569C387.282 178.336 387.762 178.204 388.253 178.184C388.744 178.164 389.232 178.257 389.682 178.454C390.14 178.653 390.547 178.954 390.871 179.334C391.195 179.714 391.428 180.163 391.553 180.647C394.662 192.454 400.507 203.363 408.614 212.491C408.948 212.863 409.193 213.306 409.329 213.786C409.466 214.267 409.491 214.772 409.403 215.264C409.319 215.747 409.125 216.206 408.837 216.603C408.548 217.001 408.173 217.327 407.739 217.558L381.025 231.873C380.341 232.238 379.551 232.348 378.794 232.184C378.037 232.02 377.363 231.593 376.892 230.979Z" fill="#CCCCCC"/>
<path d="M378.715 229.609C378.858 229.788 379.06 229.912 379.285 229.958C379.51 230.005 379.745 229.971 379.948 229.863L406.662 215.547C406.792 215.48 406.904 215.383 406.99 215.265C407.076 215.146 407.134 215.01 407.158 214.866C407.186 214.713 407.178 214.557 407.135 214.408C407.093 214.259 407.016 214.122 406.911 214.008C398.565 204.61 392.548 193.38 389.347 181.225C389.31 181.075 389.239 180.935 389.139 180.817C389.039 180.699 388.913 180.606 388.771 180.545C388.637 180.485 388.491 180.457 388.345 180.463C388.199 180.469 388.056 180.509 387.927 180.58L361.213 194.895C361.011 195.004 360.853 195.181 360.767 195.394C360.681 195.608 360.672 195.844 360.742 196.063C364.987 208.097 371.048 219.409 378.715 229.609Z" fill="white"/>
<path d="M465.641 227.16L444.719 235.111L439.611 220.921C438.933 219.037 438.943 216.973 439.638 215.095C440.334 213.217 441.671 211.646 443.413 210.659C445.176 209.66 447.237 209.324 449.225 209.713C451.213 210.101 452.997 211.187 454.254 212.775L465.641 227.16Z" fill="#CA3636"/>
<path d="M412.426 283.383C411.985 283.072 411.616 282.67 411.343 282.205C411.07 281.74 410.899 281.222 410.842 280.686C408.162 255.668 410.029 236.09 416.547 220.832C417.695 218.201 419.425 215.864 421.606 213.997C423.787 212.13 426.363 210.781 429.14 210.053L446.052 209.199L446.14 209.242C449.956 211.111 453.068 214.161 455.015 217.939C456.962 221.716 457.64 226.021 456.948 230.214C451.508 244.554 446.954 259.484 450.427 271.527C450.573 272.031 450.615 272.559 450.552 273.079C450.489 273.599 450.321 274.102 450.059 274.556C449.805 274.994 449.464 275.376 449.057 275.678C448.65 275.98 448.185 276.196 447.691 276.311L415.479 283.974C414.957 284.098 414.415 284.11 413.888 284.008C413.362 283.906 412.863 283.693 412.426 283.383Z" fill="#CA3636"/>
<path d="M440.408 202.882C450.719 202.882 459.077 194.523 459.077 184.211C459.077 173.899 450.719 165.54 440.408 165.54C430.097 165.54 421.739 173.899 421.739 184.211C421.739 194.523 430.097 202.882 440.408 202.882Z" fill="#FFB8B8"/>
<path d="M388.604 198.999L374.054 205.422C373.501 205.666 372.873 205.68 372.31 205.461C371.746 205.243 371.292 204.81 371.047 204.257L370.687 203.442C370.444 202.888 370.43 202.261 370.648 201.697C370.867 201.133 371.3 200.679 371.853 200.434L386.402 194.011C386.956 193.767 387.583 193.753 388.147 193.972C388.711 194.19 389.165 194.624 389.409 195.176L389.769 195.992C390.013 196.545 390.027 197.173 389.808 197.736C389.59 198.3 389.157 198.754 388.604 198.999Z" fill="#CCCCCC"/>
<path d="M393.925 208.881L379.375 215.305C378.822 215.548 378.194 215.562 377.631 215.344C377.067 215.125 376.613 214.692 376.368 214.139L376.008 213.324C375.765 212.771 375.75 212.143 375.969 211.579C376.187 211.016 376.621 210.562 377.173 210.317L391.723 203.894C392.277 203.65 392.904 203.636 393.468 203.854C394.031 204.073 394.485 204.506 394.73 205.059L395.09 205.874C395.334 206.428 395.348 207.055 395.129 207.619C394.911 208.183 394.478 208.637 393.925 208.881Z" fill="#CCCCCC"/>
<path d="M405.146 247.482L372.708 221.889C372.45 221.98 372.187 222.058 371.921 222.121C370.776 222.389 369.587 222.413 368.432 222.192C367.278 221.97 366.182 221.508 365.218 220.836C364.247 220.163 363.431 219.29 362.824 218.276C362.218 217.262 361.835 216.131 361.701 214.957C361.484 213.08 361.907 211.185 362.901 209.579C363.896 207.973 365.404 206.751 367.181 206.11C368.29 205.712 369.471 205.553 370.645 205.643C371.82 205.733 372.962 206.071 373.998 206.633C375.033 207.196 375.938 207.97 376.653 208.907C377.368 209.843 377.877 210.921 378.147 212.068C378.23 212.431 378.288 212.8 378.321 213.171L410.611 231.802L418.647 227.175L427.549 238.83L415.072 247.724C413.612 248.756 411.857 249.29 410.069 249.247C408.281 249.203 406.554 248.584 405.146 247.482Z" fill="#FFB8B8"/>
<path d="M431.507 242.46L412.999 229.873L421.697 217.553C422.852 215.917 424.548 214.742 426.485 214.235C428.423 213.729 430.477 213.924 432.284 214.786C434.113 215.657 435.57 217.154 436.391 219.006C437.213 220.858 437.345 222.942 436.765 224.883L431.507 242.46Z" fill="#CA3636"/>
<path d="M433.563 181.43C428.765 184.715 422.465 188.091 417.564 184.593C414.346 182.297 413.332 178.044 414.637 174.312C416.984 167.6 423.431 164.646 429.596 162.381C437.611 159.437 446.338 157.094 454.613 159.203C462.887 161.311 470.199 169.323 468.706 177.731C467.504 184.492 461.127 190.118 462.033 196.925C462.944 203.776 470.648 207.382 477.449 208.607C484.25 209.831 491.861 210.225 496.749 215.11C502.984 221.343 501.427 232.483 495.56 239.064C489.693 245.644 480.839 248.627 472.259 250.655C460.892 253.341 448.598 254.753 437.802 250.294C427.006 245.836 418.604 233.833 421.732 222.578C423.053 217.824 426.165 213.806 429.172 209.895C432.18 205.983 435.225 201.893 436.372 197.094C437.328 193.095 436.621 188.452 433.969 185.452C433.487 184.927 433.183 184.262 433.102 183.554C433.021 182.846 433.166 182.13 433.517 181.509L433.563 181.43Z" fill="#2F2E41"/>
<path d="M82.9075 272.146C78.0968 273.837 72.9317 274.261 67.9098 273.376C62.8879 272.491 58.1784 270.328 54.2351 267.095C44.1925 258.665 41.0438 244.777 38.4818 231.917C35.9559 219.238 33.43 206.559 30.9041 193.881L46.7689 204.806C58.178 212.662 69.8441 220.77 77.7437 232.15C85.6433 243.53 89.0914 259.065 82.7444 271.378" fill="#E6E6E6"/>
<path d="M81.5514 318.197C83.1571 306.5 84.8082 294.652 83.6819 282.829C82.6816 272.329 79.4785 262.074 72.9575 253.665C69.4962 249.21 65.2844 245.393 60.5115 242.386C59.2669 241.6 58.1214 243.573 59.3606 244.355C67.619 249.575 74.0067 257.283 77.6025 266.368C81.574 276.47 82.2118 287.483 81.5274 298.214C81.1135 304.704 80.2363 311.152 79.3524 317.591C79.2828 317.882 79.3262 318.189 79.4741 318.449C79.6219 318.709 79.863 318.904 80.1488 318.993C80.4403 319.072 80.7511 319.032 81.0136 318.883C81.2762 318.734 81.4694 318.488 81.5513 318.197H81.5514Z" fill="#F2F2F2"/>
<path d="M66.0852 297.498C64.022 300.634 61.1859 303.186 57.8503 304.908C54.5147 306.63 50.7919 307.463 47.0407 307.328C37.4 306.871 29.3628 300.141 22.1278 293.753L0.728027 274.857L14.8911 274.179C25.0764 273.691 35.5244 273.237 45.2255 276.378C54.9266 279.519 63.8735 287.079 65.6474 297.121" fill="#E6E6E6"/>
<path d="M86.0893 324.921C78.3607 311.245 69.3961 296.044 53.378 291.186C48.9241 289.84 44.254 289.358 39.6191 289.766C38.1583 289.891 38.523 292.143 39.9812 292.018C47.7503 291.373 55.5045 293.424 61.9382 297.827C68.1293 302.042 72.9497 307.901 77.0297 314.115C79.5288 317.92 81.7673 321.888 84.0063 325.85C84.7218 327.116 86.8132 326.202 86.0893 324.921Z" fill="#F2F2F2"/>
<path d="M98.4727 339.317C98.2123 336.299 97.129 333.411 95.3407 330.966C93.5524 328.522 91.1277 326.615 88.3307 325.453V317.547H75.0706V325.703C72.4112 326.921 70.1226 328.823 68.4379 331.215C66.7533 333.607 65.7329 336.402 65.4808 339.317L62.3628 375.565H101.591L98.4727 339.317Z" fill="#F2F2F2"/>
</g>
<defs>
<clipPath id="clip0_178_15">
<rect width="526" height="380" fill="white"/>
</clipPath>
</defs>
</svg>
